<?xml version="1.0" encoding="utf-8"?>
<!-- Generator: Adobe Illustrator 24.0.2, SVG Export Plug-In . SVG Version: 6.00 Build 0)  -->
<svg version="1.1" id="Capa_1" xmlns="http://www.w3.org/2000/svg" xmlns:xlink="http://www.w3.org/1999/xlink" x="0px" y="0px"
	 viewBox="0 0 1366 768" style="enable-background:new 0 0 1366 768;" xml:space="preserve">
<style type="text/css">
	.st0{fill:#6AAC4B;}
	.st1{fill:#618E49;}
	.st2{display:none;}
	.st3{display:inline;fill:#FFFFFF;}
	.st4{fill:#FFFFFF;}
	.st5{fill:none;stroke:#FFFFFF;stroke-width:18;stroke-linejoin:round;stroke-miterlimit:10;}
</style>
<g>
	<g>
		<rect x="0.4" y="0.3" class="st0" width="1365.6" height="768"/>
	</g>
	<g>
		<polyline class="st1" points="0.4,0.3 1366,0.3 1366,768.3 		"/>
	</g>
	<g class="st2">
		<path class="st3" d="M1319,55.3v658.3c0,4.6-5.3,8.3-11.8,8.3H58.8c-6.5,0-11.8-3.7-11.8-8.3V55.3c0-4.6,5.3-8.3,11.8-8.3h1248.4
			C1313.7,47,1319,50.7,1319,55.3z M1295.4,705.3V63.6H70.6v641.7H1295.4z"/>
	</g>
	<g>
		<path class="st4" d="M691.3,54.9v658.3c0,4.6-3.7,8.3-8.3,8.3s-8.3-3.7-8.3-8.3V54.9c0-4.6,3.7-8.3,8.3-8.3S691.3,50.3,691.3,54.9
			z"/>
	</g>
	<g>
		<path class="st4" d="M801,384c0,65.1-52.9,118-118,118s-118-52.9-118-118s52.9-118,118-118S801,318.9,801,384z M581.6,384
			c0,55.9,45.5,101.4,101.4,101.4S784.4,439.9,784.4,384S738.9,282.6,683,282.6S581.6,328.1,581.6,384z"/>
	</g>
	<g>
		<path class="st4" d="M288,384.3c0,42.8-23.3,82.4-60.8,103.2c-4,2.2-9.1,0.8-11.3-3.2c-2.2-4-0.8-9.1,3.2-11.3
			c32.2-17.9,52.2-51.9,52.2-88.7s-20-70.8-52.2-88.7c-4-2.2-5.5-7.3-3.2-11.3c2.2-4,7.3-5.5,11.3-3.2
			C264.7,302,288,341.5,288,384.3z"/>
	</g>
	<g>
		<path class="st4" d="M1154.7,288.4c0,2.9-1.5,5.8-4.3,7.3c-32.2,17.9-52.2,51.9-52.2,88.7s20,70.8,52.2,88.7
			c4,2.2,5.5,7.3,3.2,11.3c-2.2,4-7.3,5.5-11.3,3.2c-37.5-20.8-60.8-60.4-60.8-103.2s23.3-82.4,60.8-103.2c4-2.2,9.1-0.8,11.3,3.2
			C1154.4,285.6,1154.7,287,1154.7,288.4z"/>
	</g>
	<g>
		<path class="st4" d="M228.2,219.8v329.1c0,4.6-3.7,8.3-8.3,8.3H55.3c-4.6,0-8.3-3.7-8.3-8.3s3.7-8.3,8.3-8.3h156.3V228.1H55.3
			c-4.6,0-8.3-3.7-8.3-8.3c0-4.6,3.7-8.3,8.3-8.3h164.6C224.4,211.5,228.2,215.2,228.2,219.8z"/>
	</g>
	<g>
		<path class="st4" d="M131.6,274.6v219.4c0,4.6-3.7,8.3-8.3,8.3h-68c-4.6,0-8.3-3.7-8.3-8.3c0-4.6,3.7-8.3,8.3-8.3H115V282.9H55.3
			c-4.6,0-8.3-3.7-8.3-8.3s3.7-8.3,8.3-8.3h68C127.9,266.3,131.6,270,131.6,274.6z"/>
	</g>
	<g>
		<path class="st4" d="M1319.3,274.6c0,4.6-3.7,8.3-8.3,8.3h-59.7v202.8h59.7c4.6,0,8.3,3.7,8.3,8.3c0,4.6-3.7,8.3-8.3,8.3h-68
			c-4.6,0-8.3-3.7-8.3-8.3V274.6c0-4.6,3.7-8.3,8.3-8.3h68C1315.6,266.3,1319.3,270,1319.3,274.6z"/>
	</g>
	<g>
		<path class="st4" d="M1319.3,219.8c0,4.6-3.7,8.3-8.3,8.3h-156.3v312.5H1311c4.6,0,8.3,3.7,8.3,8.3s-3.7,8.3-8.3,8.3h-164.6
			c-4.6,0-8.3-3.7-8.3-8.3V219.8c0-4.6,3.7-8.3,8.3-8.3H1311C1315.6,211.5,1319.3,215.2,1319.3,219.8z"/>
	</g>
</g>
<rect x="47" y="47" class="st5" width="1272" height="674"/>
</svg>
